<svg width="235" height="60" viewBox="0 0 235 60" fill="none" xmlns="http://www.w3.org/2000/svg">
<g clip-path="url(#clip0)">
<path d="M20.4084 20.1966C15.6366 20.1966 11.5001 22.1397 8.44103 25.8223V8.54188C8.45102 8.36923 8.4244 8.19642 8.36292 8.03478C8.30143 7.87314 8.20647 7.72633 8.08427 7.60396C7.96206 7.48159 7.81537 7.38644 7.65381 7.32475C7.49225 7.26306 7.31947 7.23621 7.14681 7.24598H1.29421C1.12155 7.23621 0.948776 7.26306 0.787216 7.32475C0.625656 7.38644 0.478962 7.48159 0.356755 7.60396C0.234549 7.72633 0.139589 7.87314 0.0781049 8.03478C0.0166204 8.19642 -0.0100003 8.36923 -1.13866e-05 8.54188V58.1561C-0.0100003 58.3288 0.0166204 58.5016 0.0781049 58.6632C0.139589 58.8249 0.234549 58.9717 0.356755 59.0941C0.478962 59.2164 0.625656 59.3116 0.787216 59.3733C0.948776 59.435 1.12155 59.4618 1.29421 59.452H6.36691C7.09806 59.452 7.56869 58.9848 7.65946 58.1679L8.02251 54.1222C11.0833 57.9729 15.3593 60.005 20.4084 60.005C31.1085 60.005 39.1781 51.5321 39.1781 40.2975C39.1781 28.8411 31.1102 20.2017 20.4084 20.2017V20.1966ZM31.0497 40.2202C31.0497 47.088 26.14 52.2649 19.6285 52.2649C13.0112 52.2649 8.2074 47.1989 8.2074 40.2202C8.2074 33.1759 13.1171 27.8628 19.6369 27.8628C26.2543 27.8628 31.0581 33.0599 31.0581 40.2202" fill="#1E1E1E"/>
<path d="M81.9934 20.9765H76.9224C76.1896 20.9765 75.719 21.4438 75.6265 22.2624L75.3374 26.3753C72.2531 22.3313 67.9519 20.1966 62.8792 20.1966C52.1792 20.1966 44.1096 28.836 44.1096 40.2924C44.1096 51.527 52.1775 60 62.8792 60C67.9217 60 72.2044 57.9662 75.2651 54.1171L75.6366 58.1729C75.7274 58.9865 76.198 59.4537 76.9308 59.4537H82.0018C82.1745 59.4635 82.3473 59.4366 82.5088 59.375C82.6704 59.3133 82.8171 59.2181 82.9393 59.0957C83.0615 58.9734 83.1565 58.8266 83.2179 58.6649C83.2794 58.5033 83.306 58.3305 83.2961 58.1578V22.2724C83.306 22.0998 83.2794 21.927 83.2179 21.7653C83.1565 21.6037 83.0615 21.4569 82.9393 21.3345C82.8171 21.2122 82.6704 21.117 82.5088 21.0553C82.3473 20.9936 82.1745 20.9668 82.0018 20.9765H81.9934ZM75.0802 40.2151C75.0802 47.1939 70.2765 52.2598 63.6591 52.2598C57.1476 52.2598 52.238 47.0829 52.238 40.2151C52.238 33.0549 57.0418 27.8578 63.6591 27.8578C70.1706 27.8578 75.0802 33.1708 75.0802 40.2151Z" fill="#1E1E1E"/>
<path d="M109.492 20.1193C105.542 20.1193 102.346 21.9682 99.9899 25.6324L99.7075 22.2573C99.6168 21.4438 99.1461 20.9765 98.4133 20.9765H92.949C92.7763 20.9668 92.6035 20.9936 92.442 21.0553C92.2804 21.117 92.1337 21.2122 92.0115 21.3345C91.8893 21.4569 91.7944 21.6037 91.7329 21.7654C91.6714 21.927 91.6448 22.0998 91.6548 22.2725V58.1561C91.6448 58.3288 91.6714 58.5016 91.7329 58.6632C91.7944 58.8249 91.8893 58.9717 92.0115 59.0941C92.1337 59.2164 92.2804 59.3116 92.442 59.3733C92.6035 59.435 92.7763 59.4618 92.949 59.452H98.7999C98.9727 59.4621 99.1457 59.4354 99.3074 59.3738C99.4692 59.3122 99.6161 59.2171 99.7385 59.0947C99.8609 58.9723 99.956 58.8254 100.018 58.6637C100.079 58.5019 100.106 58.3289 100.096 58.1561V36.0803C100.096 31.3152 103.488 27.8578 108.164 27.8578C109.218 27.843 110.267 28.0002 111.27 28.3234C112.063 28.4814 112.626 28.4074 112.969 27.5468L114.763 23.2608C115.099 22.5884 115.001 22.1296 114.415 21.627C113.194 20.669 111.403 20.1143 109.5 20.1143" fill="#1E1E1E"/>
<path d="M156.427 57.8486L140.499 37.1023L154.236 22.5884C154.606 22.1783 154.731 21.78 154.591 21.4657C154.452 21.1514 154.07 20.9765 153.519 20.9765H146.888C146.216 20.9765 145.679 21.2018 145.315 21.6489L129.303 38.6587V8.54189C129.313 8.36924 129.287 8.19643 129.225 8.03479C129.164 7.87315 129.069 7.72633 128.947 7.60397C128.824 7.4816 128.678 7.38645 128.516 7.32476C128.355 7.26306 128.182 7.23622 128.009 7.24598H122.158C121.985 7.23597 121.812 7.26263 121.651 7.32422C121.489 7.3858 121.342 7.48091 121.22 7.60331C121.097 7.7257 121.002 7.8726 120.94 8.03436C120.879 8.19613 120.852 8.36909 120.862 8.54189V58.1561C120.852 58.3289 120.879 58.5019 120.94 58.6637C121.002 58.8254 121.097 58.9723 121.22 59.0947C121.342 59.2171 121.489 59.3122 121.651 59.3738C121.812 59.4354 121.985 59.4621 122.158 59.452H128.009C128.182 59.4618 128.355 59.435 128.516 59.3733C128.678 59.3116 128.824 59.2164 128.947 59.0941C129.069 58.9717 129.164 58.8249 129.225 58.6632C129.287 58.5016 129.313 58.3288 129.303 58.1561V48.8444L135.255 42.5111L147.801 58.6974C148.194 59.247 148.601 59.452 149.313 59.452H155.632C156.153 59.452 156.539 59.2688 156.694 58.9478C156.848 58.6268 156.751 58.2435 156.433 57.8469" fill="#1E1E1E"/>
<path d="M230.046 10.7118C229.78 10.7102 229.524 10.6116 229.326 10.4344C229.128 10.2573 229.001 10.0138 228.969 9.74972C228.938 9.48568 229.004 9.21926 229.155 9.00055C229.307 8.78184 229.533 8.62591 229.791 8.56206L232.772 7.84603C232.913 7.80726 233.061 7.79727 233.206 7.81665C233.351 7.83604 233.49 7.8844 233.616 7.95886C233.742 8.03331 233.851 8.13234 233.938 8.25004C234.025 8.36774 234.087 8.5017 234.121 8.64393C234.155 8.78616 234.16 8.93376 234.135 9.07792C234.111 9.22207 234.058 9.35985 233.979 9.48302C233.9 9.60619 233.797 9.71224 233.677 9.79485C233.556 9.87746 233.42 9.93494 233.277 9.96386L230.297 10.6799C230.213 10.7011 230.127 10.7119 230.041 10.7118" fill="#1942D8"/>
<path d="M226.91 6.92325C226.708 6.92151 226.512 6.86327 226.342 6.75517C226.22 6.68058 226.113 6.58268 226.029 6.46704C225.945 6.3514 225.884 6.2203 225.851 6.08123C225.817 5.94216 225.811 5.79784 225.834 5.65651C225.856 5.51519 225.906 5.37962 225.98 5.25757L227.167 3.32127C227.235 3.18702 227.33 3.06834 227.447 2.97275C227.563 2.87715 227.698 2.80671 227.843 2.76587C227.988 2.72502 228.139 2.71467 228.289 2.73545C228.438 2.75623 228.581 2.80771 228.709 2.88662C228.837 2.96553 228.948 3.07017 229.034 3.19393C229.119 3.31769 229.178 3.45788 229.207 3.60565C229.236 3.75342 229.234 3.90556 229.201 4.05247C229.168 4.19938 229.105 4.33786 229.016 4.45918L227.839 6.39548C227.742 6.5549 227.606 6.6866 227.443 6.77787C227.28 6.86914 227.096 6.91689 226.91 6.91653" fill="#1942D8"/>
<path d="M230.903 16.6989C230.702 16.6967 230.505 16.6385 230.335 16.5308L228.401 15.3542C228.266 15.2866 228.146 15.1917 228.05 15.0754C227.953 14.9592 227.882 14.8242 227.841 14.679C227.799 14.5338 227.789 14.3815 227.809 14.232C227.83 14.0824 227.881 13.9387 227.96 13.81C228.039 13.6814 228.144 13.5706 228.269 13.4847C228.393 13.3987 228.533 13.3396 228.682 13.3109C228.83 13.2823 228.982 13.2848 229.13 13.3182C229.277 13.3517 229.416 13.4154 229.537 13.5053L231.473 14.6819C231.675 14.8061 231.831 14.9928 231.917 15.2137C232.004 15.4346 232.015 15.6776 231.951 15.9058C231.886 16.134 231.749 16.3349 231.56 16.4781C231.371 16.6212 231.141 16.6987 230.903 16.6989Z" fill="#1942D8"/>
<path d="M176.575 59.7C176.386 59.5417 176.258 59.3218 176.215 59.0789L171.391 47.9318C169.411 44.2141 168.849 39.9042 169.808 35.803L172.29 25.1887C172.34 24.9744 172.463 24.7842 172.638 24.6506C172.813 24.5169 173.028 24.4481 173.248 24.4558C173.468 24.4636 173.678 24.5474 173.843 24.693C174.008 24.8386 174.118 25.037 174.152 25.2542L175.847 35.6383L177.943 34.4029L195.858 24.318C196.182 24.1536 196.439 23.8818 196.584 23.5491C196.729 23.2164 196.755 22.8435 196.655 22.4943L193.033 13.8768C192.847 13.2226 192.885 12.5248 193.142 11.8951L195.514 6.07277C195.871 5.19403 196.509 4.45784 197.328 3.97848L204.029 0.0520949C204.106 0.00702779 204.196 -0.0095842 204.284 0.00516397C204.372 0.0199121 204.452 0.0650818 204.51 0.132774L204.691 0.359684C204.724 0.398636 204.746 0.445671 204.754 0.495913C204.763 0.546155 204.758 0.597775 204.74 0.645422L202.92 5.38196C205.49 6.55684 208.13 7.36531 211.709 7.36531C214.769 7.36531 217.554 7.07453 220.338 5.90805C220.487 5.84238 220.654 5.82737 220.813 5.86531C220.971 5.90324 221.113 5.99203 221.217 6.11815L223.041 8.3654C223.148 8.49704 223.208 8.66057 223.213 8.83032C223.217 9.00008 223.165 9.16644 223.064 9.30329C221.577 11.5304 219.366 14.1877 216.786 15.9761C216.728 16.0172 216.685 16.0765 216.664 16.1447C216.643 16.2128 216.645 16.2861 216.67 16.3529C216.695 16.4198 216.741 16.4765 216.802 16.5141C216.862 16.5518 216.934 16.5683 217.005 16.561L222.002 16.2518C222.097 16.2516 222.191 16.2701 222.279 16.3065C222.367 16.3428 222.447 16.3961 222.515 16.4635C222.582 16.5308 222.635 16.6107 222.672 16.6987C222.708 16.7867 222.727 16.881 222.726 16.9762V18.1746C222.726 18.2854 222.695 18.3939 222.635 18.4874C222.575 18.5809 222.491 18.6555 222.39 18.7024C220.509 19.548 218.774 20.6872 217.25 22.0775C214.238 24.755 212.246 27.4241 211.495 33.1708C209.908 45.2492 210.223 50.7807 210.581 53.0818C210.647 53.5078 210.825 53.909 211.095 54.2452C211.365 54.5814 211.719 54.8409 212.12 54.9979L215.314 56.2501C215.522 56.3321 215.693 56.4882 215.792 56.6884C215.892 56.8885 215.915 57.1186 215.855 57.3342L215.131 59.9445H206.054C205.825 59.9433 205.603 59.8673 205.421 59.728C205.239 59.5888 205.107 59.3939 205.046 59.173L201.829 47.4578C201.804 47.3695 201.761 47.2879 201.7 47.2188C201.64 47.1498 201.566 47.0951 201.482 47.0588C201.397 47.0225 201.306 47.0055 201.215 47.0091C201.123 47.0127 201.034 47.0368 200.953 47.0796L188.37 54.2785L194.749 56.2854C194.973 56.3561 195.16 56.5107 195.271 56.7167C195.383 56.9227 195.41 57.164 195.348 57.3897L194.638 59.9445H177.25C177.003 59.9448 176.764 59.8582 176.575 59.7Z" fill="#1942D8"/>
</g>
<defs>
<clipPath id="clip0">
<rect width="234.117" height="60" fill="white"/>
</clipPath>
</defs>
</svg>